<svg xmlns="http://www.w3.org/2000/svg" xmlns:xlink="http://www.w3.org/1999/xlink" width="500" zoomAndPan="magnify" viewBox="0 0 375 374.999991" height="500" preserveAspectRatio="xMidYMid meet" version="1.0"><defs><clipPath id="dee87d7338"><path d="M 187 195 L 348.492188 195 L 348.492188 249 L 187 249 Z M 187 195 " clip-rule="nonzero"/></clipPath><clipPath id="d014b65a06"><path d="M 26.742188 227 L 188 227 L 188 337.664062 L 26.742188 337.664062 Z M 26.742188 227 " clip-rule="nonzero"/></clipPath><clipPath id="760b6c3707"><path d="M 187 227 L 348.492188 227 L 348.492188 337.664062 L 187 337.664062 Z M 187 227 " clip-rule="nonzero"/></clipPath><clipPath id="ee5d251123"><path d="M 191 160.664062 L 315 160.664062 L 315 227 L 191 227 Z M 191 160.664062 " clip-rule="nonzero"/></clipPath><clipPath id="c59b8d9630"><path d="M 60 160.664062 L 184 160.664062 L 184 227 L 60 227 Z M 60 160.664062 " clip-rule="nonzero"/></clipPath><clipPath id="0468f43f14"><path d="M 119 28 L 219 28 L 219 131 L 119 131 Z M 119 28 " clip-rule="nonzero"/></clipPath><clipPath id="f60add6ebc"><path d="M 121.175781 25.03125 L 235.8125 30.085938 L 229.667969 169.449219 L 115.027344 164.394531 Z M 121.175781 25.03125 " clip-rule="nonzero"/></clipPath><clipPath id="011ea30634"><path d="M 121.175781 25.03125 L 235.8125 30.085938 L 229.667969 169.449219 L 115.027344 164.394531 Z M 121.175781 25.03125 " clip-rule="nonzero"/></clipPath><clipPath id="a07e1c5634"><path d="M 225 143 L 231 143 L 231 154 L 225 154 Z M 225 143 " clip-rule="nonzero"/></clipPath><clipPath id="9b7db52f08"><path d="M 121.175781 25.03125 L 235.8125 30.085938 L 229.667969 169.449219 L 115.027344 164.394531 Z M 121.175781 25.03125 " clip-rule="nonzero"/></clipPath><clipPath id="8c49f9d61e"><path d="M 121.175781 25.03125 L 235.8125 30.085938 L 229.667969 169.449219 L 115.027344 164.394531 Z M 121.175781 25.03125 " clip-rule="nonzero"/></clipPath><clipPath id="0c6f8bc81c"><path d="M 208 134 L 224 134 L 224 165 L 208 165 Z M 208 134 " clip-rule="nonzero"/></clipPath><clipPath id="2b46a4f4db"><path d="M 121.175781 25.03125 L 235.8125 30.085938 L 229.667969 169.449219 L 115.027344 164.394531 Z M 121.175781 25.03125 " clip-rule="nonzero"/></clipPath><clipPath id="d4218dda90"><path d="M 121.175781 25.03125 L 235.8125 30.085938 L 229.667969 169.449219 L 115.027344 164.394531 Z M 121.175781 25.03125 " clip-rule="nonzero"/></clipPath><clipPath id="8b8c636291"><path d="M 146 57 L 222 57 L 222 168 L 146 168 Z M 146 57 " clip-rule="nonzero"/></clipPath><clipPath id="d4c2a2f854"><path d="M 121.175781 25.03125 L 235.8125 30.085938 L 229.667969 169.449219 L 115.027344 164.394531 Z M 121.175781 25.03125 " clip-rule="nonzero"/></clipPath><clipPath id="869181814a"><path d="M 121.175781 25.03125 L 235.8125 30.085938 L 229.667969 169.449219 L 115.027344 164.394531 Z M 121.175781 25.03125 " clip-rule="nonzero"/></clipPath></defs><g clip-path="url(#dee87d7338)"><path fill="#ff5757" d="M 342.925781 214.992188 C 344.582031 209.074219 348.21875 197.269531 348.21875 197.269531 C 210.308594 185.640625 187.5 248.230469 187.5 248.230469 C 219.5 207.179688 318.855469 212.941406 342.925781 214.992188 " fill-opacity="1" fill-rule="nonzero"/></g><path fill="#ffbd59" d="M 32.601562 212.601562 C 31.039062 206.664062 27.582031 194.800781 27.582031 194.800781 C 165.65625 185.300781 187.5 248.230469 187.5 248.230469 C 156.132812 206.691406 56.703125 210.921875 32.601562 212.601562 " fill-opacity="1" fill-rule="nonzero"/><g clip-path="url(#d014b65a06)"><path fill="#ffbd59" d="M 26.777344 229.039062 L 58.871094 306.898438 C 110.421875 313.148438 157.191406 298.605469 187.5 337.484375 L 187.5 261.769531 C 150.984375 214.929688 26.777344 229.039062 26.777344 229.039062 " fill-opacity="1" fill-rule="nonzero"/></g><g clip-path="url(#760b6c3707)"><path fill="#ff5757" d="M 348.21875 229.039062 L 316.128906 306.898438 C 264.578125 313.148438 217.808594 298.605469 187.5 337.484375 L 187.5 261.769531 C 224.011719 214.929688 348.21875 229.039062 348.21875 229.039062 " fill-opacity="1" fill-rule="nonzero"/></g><g clip-path="url(#ee5d251123)"><path fill="#ff5757" d="M 314.894531 160.667969 L 310.496094 179.214844 C 269.675781 183.226562 211.585938 194.5625 191.359375 226.523438 C 191.359375 226.523438 204.976562 172.28125 314.894531 160.667969 " fill-opacity="1" fill-rule="nonzero"/></g><g clip-path="url(#c59b8d9630)"><path fill="#ffbd59" d="M 60.105469 160.667969 L 64.503906 179.214844 C 105.324219 183.226562 163.414062 194.5625 183.636719 226.523438 C 183.636719 226.523438 170.023438 172.28125 60.105469 160.667969 " fill-opacity="1" fill-rule="nonzero"/></g><g clip-path="url(#0468f43f14)"><g clip-path="url(#f60add6ebc)"><g clip-path="url(#011ea30634)"><path fill="#ffbd59" d="M 202.464844 52.855469 C 202.035156 54.390625 205.824219 55.226562 207.046875 54.207031 C 211.742188 50.292969 217.351562 45.734375 218.253906 39.691406 C 218.738281 36.433594 212.234375 31.78125 210.023438 34.222656 C 205.550781 39.15625 204.125 46.867188 202.464844 52.855469 M 179.855469 51.316406 C 178.660156 44.097656 182.546875 36.410156 180.0625 30.582031 C 178.78125 27.578125 168.488281 28.480469 168.589844 31.75 C 168.808594 38.863281 172.113281 45.902344 174.398438 51.628906 C 175.074219 53.320312 180.152344 53.113281 179.855469 51.316406 Z M 151.414062 64.046875 C 146.457031 58.421875 144.542969 51.175781 140.171875 48.761719 C 136.757812 46.878906 130.253906 52.902344 131.484375 56.605469 C 133.464844 62.59375 140.652344 65.832031 146.558594 68.039062 C 148.519531 68.773438 152.796875 65.621094 151.414062 64.046875 Z M 138.304688 91.101562 C 132.605469 89.65625 125.9375 88.636719 120.664062 91.238281 C 118.199219 92.453125 118.660156 99.03125 121.375 99.449219 C 126.945312 100.3125 133.226562 97.675781 138.746094 95.816406 C 140.242188 95.316406 139.835938 91.488281 138.304688 91.101562 Z M 145.242188 118.476562 C 140.8125 120.722656 135.050781 121.222656 131.984375 123.96875 C 130.015625 125.730469 133.644531 131.507812 136.160156 130.703125 C 140.542969 129.296875 144.1875 124.679688 147.617188 121.835938 C 148.667969 120.960938 146.464844 117.855469 145.242188 118.476562 Z M 145.242188 118.476562 " fill-opacity="1" fill-rule="evenodd"/></g></g></g><g clip-path="url(#a07e1c5634)"><g clip-path="url(#9b7db52f08)"><g clip-path="url(#8c49f9d61e)"><path fill="#2420a1" d="M 225.777344 153.828125 C 228.535156 151.761719 230.484375 149.96875 230.523438 148.960938 C 230.566406 147.945312 228.417969 146.0625 225.285156 143.917969 C 225.355469 144.261719 225.417969 144.605469 225.476562 144.949219 C 225.898438 147.503906 225.984375 150.148438 225.871094 152.6875 L 225.871094 152.699219 C 225.855469 153.078125 225.820312 153.453125 225.777344 153.828125 " fill-opacity="1" fill-rule="evenodd"/></g></g></g><g clip-path="url(#0c6f8bc81c)"><g clip-path="url(#2b46a4f4db)"><g clip-path="url(#d4218dda90)"><path fill="#eb5b5d" d="M 208.519531 134.003906 C 211.539062 136.476562 210.328125 140.714844 208.597656 143.78125 C 211.175781 147.988281 210.917969 152.054688 208.226562 155.300781 C 210.53125 159.808594 209.769531 161.738281 208.710938 164.175781 C 211.285156 162.394531 217.3125 159.75 222.742188 156.003906 C 222.996094 154.871094 223.207031 153.726562 223.257812 152.582031 L 223.261719 152.570312 C 223.367188 150.183594 223.292969 147.71875 222.902344 145.375 C 222.695312 144.140625 222.402344 142.9375 222.007812 141.796875 C 217.300781 138.886719 212.695312 135.898438 208.519531 134.003906 " fill-opacity="1" fill-rule="evenodd"/></g></g></g><g clip-path="url(#8b8c636291)"><g clip-path="url(#d4c2a2f854)"><g clip-path="url(#869181814a)"><path fill="#2420a1" d="M 172.195312 153.949219 C 170.039062 153.746094 168.449219 151.832031 168.644531 149.675781 C 168.839844 147.515625 170.75 145.925781 172.910156 146.125 C 183.8125 147.136719 192.148438 146.492188 200.464844 145.851562 C 200.933594 145.8125 200.871094 145.820312 202.121094 145.726562 C 204.277344 145.558594 206.15625 147.175781 206.3125 149.332031 C 206.472656 151.492188 204.851562 153.375 202.695312 153.542969 C 202.539062 153.550781 202.632812 153.546875 201.070312 153.667969 L 201.054688 153.667969 C 192.367188 154.335938 183.660156 155.011719 172.195312 153.949219 M 175.3125 167 C 173.148438 166.910156 171.472656 165.085938 171.566406 162.921875 C 171.664062 160.757812 173.492188 159.074219 175.65625 159.160156 C 176.066406 159.179688 176.519531 159.195312 177.007812 159.207031 C 178.03125 159.234375 179.195312 159.246094 180.472656 159.238281 C 181.511719 159.238281 182.738281 159.210938 184.132812 159.164062 C 190.152344 158.96875 196.355469 158.378906 200.707031 157.382812 C 202.8125 156.898438 204.910156 158.214844 205.394531 160.320312 C 205.875 162.425781 204.5625 164.523438 202.457031 165.003906 C 197.4375 166.15625 190.707031 166.820312 184.367188 167.027344 C 183.214844 167.066406 181.914062 167.085938 180.492188 167.09375 C 179.304688 167.097656 178.0625 167.085938 176.785156 167.050781 C 176.316406 167.039062 175.824219 167.023438 175.3125 167 Z M 221.183594 86.027344 C 221.761719 91.121094 213.953125 92.027344 213.371094 86.929688 C 210.914062 71.699219 197.644531 65.023438 184.523438 65.519531 C 172.199219 65.984375 158.992188 73.972656 155.394531 85.855469 C 153.511719 92.078125 154.554688 99.332031 157.730469 104.957031 C 160.703125 110.222656 165.15625 113.46875 169.410156 118.515625 C 170.121094 119.355469 170.785156 120.273438 171.390625 121.242188 C 173.257812 124.230469 174.515625 127.6875 175 131.097656 C 175.296875 133.175781 175.769531 133.742188 176.847656 133.886719 C 184.6875 134.953125 194.324219 134.929688 202.097656 133.644531 C 204.234375 133.292969 206.246094 134.742188 206.59375 136.878906 C 206.941406 139.015625 205.492188 141.035156 203.355469 141.386719 C 198.285156 142.226562 188.792969 142.472656 180.117188 141.839844 C 178.28125 141.707031 176.597656 141.550781 175.125 141.378906 C 172.265625 141.035156 166.386719 140.867188 167.230469 136.117188 C 167.820312 132.816406 166.839844 128.75 164.75 125.410156 C 160.0625 117.898438 153.753906 114.707031 149.867188 106.761719 C 146.707031 100.308594 145.722656 92.238281 147.410156 85.25 C 151.40625 68.742188 169.160156 57.664062 186.203125 57.699219 C 202.769531 57.734375 218.867188 67.0625 221.183594 86.027344 Z M 221.183594 86.027344 " fill-opacity="1" fill-rule="evenodd"/></g></g></g></svg>