<svg xmlns="http://www.w3.org/2000/svg" xmlns:xlink="http://www.w3.org/1999/xlink" width="500" zoomAndPan="magnify" viewBox="0 0 375 374.999991" height="500" preserveAspectRatio="xMidYMid meet" version="1.2"><defs><clipPath id="a7869cb90b"><path d="M 187 200 L 328.773438 200 L 328.773438 247 L 187 247 Z M 187 200 "/></clipPath><clipPath id="4e6e115646"><path d="M 46.023438 198 L 188 198 L 188 247 L 46.023438 247 Z M 46.023438 198 "/></clipPath><clipPath id="7a0121314b"><path d="M 46.023438 227 L 188 227 L 188 324.621094 L 46.023438 324.621094 Z M 46.023438 227 "/></clipPath><clipPath id="a246d175df"><path d="M 187 227 L 328.773438 227 L 328.773438 324.621094 L 187 324.621094 Z M 187 227 "/></clipPath><clipPath id="aa458b9d66"><path d="M 190 169.371094 L 300 169.371094 L 300 228 L 190 228 Z M 190 169.371094 "/></clipPath><clipPath id="65c563e7b6"><path d="M 75 169.371094 L 184 169.371094 L 184 228 L 75 228 Z M 75 169.371094 "/></clipPath><clipPath id="8e0d3b147d"><path d="M 127 53 L 215 53 L 215 144 L 127 144 Z M 127 53 "/></clipPath><clipPath id="d3647e45e6"><path d="M 129.128906 50.007812 L 230.28125 54.46875 L 224.863281 177.347656 L 123.710938 172.886719 Z M 129.128906 50.007812 "/></clipPath><clipPath id="76d9cffc24"><path d="M 129.128906 50.007812 L 230.28125 54.46875 L 224.863281 177.347656 L 123.710938 172.886719 Z M 129.128906 50.007812 "/></clipPath><clipPath id="c7d0754b34"><path d="M 220 154 L 226 154 L 226 164 L 220 164 Z M 220 154 "/></clipPath><clipPath id="2a1fcce1fd"><path d="M 129.128906 50.007812 L 230.28125 54.46875 L 224.863281 177.347656 L 123.710938 172.886719 Z M 129.128906 50.007812 "/></clipPath><clipPath id="8a3d09529b"><path d="M 129.128906 50.007812 L 230.28125 54.46875 L 224.863281 177.347656 L 123.710938 172.886719 Z M 129.128906 50.007812 "/></clipPath><clipPath id="aa001993d8"><path d="M 205 145 L 220 145 L 220 173 L 205 173 Z M 205 145 "/></clipPath><clipPath id="0200590613"><path d="M 129.128906 50.007812 L 230.28125 54.46875 L 224.863281 177.347656 L 123.710938 172.886719 Z M 129.128906 50.007812 "/></clipPath><clipPath id="bc52ffc95b"><path d="M 129.128906 50.007812 L 230.28125 54.46875 L 224.863281 177.347656 L 123.710938 172.886719 Z M 129.128906 50.007812 "/></clipPath><clipPath id="da6a8b4592"><path d="M 151 78 L 218 78 L 218 176 L 151 176 Z M 151 78 "/></clipPath><clipPath id="a20028f457"><path d="M 129.128906 50.007812 L 230.28125 54.46875 L 224.863281 177.347656 L 123.710938 172.886719 Z M 129.128906 50.007812 "/></clipPath><clipPath id="2a461820f7"><path d="M 129.128906 50.007812 L 230.28125 54.46875 L 224.863281 177.347656 L 123.710938 172.886719 Z M 129.128906 50.007812 "/></clipPath></defs><g id="a75865f9d4"><g clip-rule="nonzero" clip-path="url(#a7869cb90b)"><path style=" stroke:none;fill-rule:nonzero;fill:#ff5757;fill-opacity:1;" d="M 323.632812 217.070312 C 325.085938 211.875 328.28125 201.507812 328.28125 201.507812 C 207.195312 191.300781 187.167969 246.25 187.167969 246.25 C 215.265625 210.210938 302.5 215.269531 323.632812 217.070312 "/></g><g clip-rule="nonzero" clip-path="url(#4e6e115646)"><path style=" stroke:none;fill-rule:nonzero;fill:#ffbd59;fill-opacity:1;" d="M 51.171875 214.972656 C 49.796875 209.757812 46.761719 199.339844 46.761719 199.339844 C 167.992188 191 187.167969 246.25 187.167969 246.25 C 159.628906 209.78125 72.332031 213.496094 51.171875 214.972656 "/></g><g clip-rule="nonzero" clip-path="url(#7a0121314b)"><path style=" stroke:none;fill-rule:nonzero;fill:#ffbd59;fill-opacity:1;" d="M 46.058594 229.402344 L 74.234375 297.761719 C 119.496094 303.25 160.558594 290.480469 187.167969 324.617188 L 187.167969 258.140625 C 155.109375 217.015625 46.058594 229.402344 46.058594 229.402344 "/></g><g clip-rule="nonzero" clip-path="url(#a246d175df)"><path style=" stroke:none;fill-rule:nonzero;fill:#ff5757;fill-opacity:1;" d="M 328.28125 229.402344 L 300.105469 297.761719 C 254.84375 303.25 213.78125 290.480469 187.167969 324.617188 L 187.167969 258.140625 C 219.226562 217.015625 328.28125 229.402344 328.28125 229.402344 "/></g><g clip-rule="nonzero" clip-path="url(#aa458b9d66)"><path style=" stroke:none;fill-rule:nonzero;fill:#ff5757;fill-opacity:1;" d="M 299.019531 169.375 L 295.15625 185.65625 C 259.320312 189.179688 208.316406 199.132812 190.558594 227.195312 C 190.558594 227.195312 202.515625 179.570312 299.019531 169.375 "/></g><g clip-rule="nonzero" clip-path="url(#65c563e7b6)"><path style=" stroke:none;fill-rule:nonzero;fill:#ffbd59;fill-opacity:1;" d="M 75.320312 169.375 L 79.179688 185.65625 C 115.019531 189.179688 166.023438 199.132812 183.78125 227.195312 C 183.78125 227.195312 171.824219 179.570312 75.320312 169.375 "/></g><g clip-rule="nonzero" clip-path="url(#8e0d3b147d)"><g clip-rule="nonzero" clip-path="url(#d3647e45e6)"><g clip-rule="nonzero" clip-path="url(#76d9cffc24)"><path style=" stroke:none;fill-rule:evenodd;fill:#ffbd59;fill-opacity:1;" d="M 200.667969 74.492188 C 200.292969 75.84375 203.628906 76.578125 204.703125 75.679688 C 208.835938 72.234375 213.773438 68.222656 214.5625 62.902344 C 214.992188 60.035156 209.269531 55.945312 207.320312 58.089844 C 203.386719 62.433594 202.132812 69.222656 200.667969 74.492188 M 180.773438 73.136719 C 179.722656 66.78125 183.140625 60.015625 180.957031 54.886719 C 179.828125 52.242188 170.769531 53.039062 170.859375 55.914062 C 171.050781 62.175781 173.960938 68.371094 175.96875 73.410156 C 176.5625 74.898438 181.035156 74.71875 180.773438 73.136719 Z M 155.742188 84.339844 C 151.378906 79.390625 149.695312 73.011719 145.851562 70.886719 C 142.84375 69.230469 137.121094 74.53125 138.203125 77.789062 C 139.949219 83.058594 146.269531 85.910156 151.46875 87.851562 C 153.195312 88.496094 156.960938 85.722656 155.742188 84.339844 Z M 144.207031 108.148438 C 139.191406 106.875 133.320312 105.976562 128.679688 108.269531 C 126.511719 109.335938 126.917969 115.128906 129.308594 115.496094 C 134.207031 116.253906 139.738281 113.933594 144.59375 112.300781 C 145.910156 111.855469 145.554688 108.488281 144.207031 108.148438 Z M 150.3125 132.238281 C 146.414062 134.214844 141.339844 134.65625 138.644531 137.074219 C 136.910156 138.625 140.105469 143.707031 142.316406 143 C 146.175781 141.761719 149.382812 137.699219 152.402344 135.195312 C 153.328125 134.425781 151.386719 131.695312 150.3125 132.238281 Z M 150.3125 132.238281 "/></g></g></g><g clip-rule="nonzero" clip-path="url(#c7d0754b34)"><g clip-rule="nonzero" clip-path="url(#2a1fcce1fd)"><g clip-rule="nonzero" clip-path="url(#8a3d09529b)"><path style=" stroke:none;fill-rule:evenodd;fill:#2420a1;fill-opacity:1;" d="M 221.1875 163.351562 C 223.613281 161.53125 225.332031 159.953125 225.363281 159.066406 C 225.398438 158.171875 223.511719 156.519531 220.753906 154.632812 C 220.816406 154.933594 220.871094 155.234375 220.921875 155.539062 C 221.292969 157.785156 221.367188 160.113281 221.269531 162.347656 L 221.269531 162.359375 C 221.253906 162.691406 221.222656 163.023438 221.1875 163.351562 "/></g></g></g><g clip-rule="nonzero" clip-path="url(#aa001993d8)"><g clip-rule="nonzero" clip-path="url(#0200590613)"><g clip-rule="nonzero" clip-path="url(#bc52ffc95b)"><path style=" stroke:none;fill-rule:evenodd;fill:#eb5b5d;fill-opacity:1;" d="M 206 145.902344 C 208.65625 148.082031 207.59375 151.8125 206.070312 154.511719 C 208.335938 158.210938 208.109375 161.789062 205.742188 164.648438 C 207.769531 168.613281 207.097656 170.3125 206.167969 172.457031 C 208.433594 170.890625 213.738281 168.5625 218.515625 165.265625 C 218.738281 164.269531 218.925781 163.261719 218.972656 162.257812 L 218.972656 162.246094 C 219.0625 160.144531 219 157.976562 218.65625 155.914062 C 218.476562 154.828125 218.21875 153.765625 217.867188 152.761719 C 213.726562 150.203125 209.671875 147.574219 206 145.902344 "/></g></g></g><g clip-rule="nonzero" clip-path="url(#da6a8b4592)"><g clip-rule="nonzero" clip-path="url(#a20028f457)"><g clip-rule="nonzero" clip-path="url(#2a461820f7)"><path style=" stroke:none;fill-rule:evenodd;fill:#2420a1;fill-opacity:1;" d="M 174.03125 163.457031 C 172.132812 163.28125 170.734375 161.59375 170.90625 159.695312 C 171.078125 157.796875 172.761719 156.398438 174.660156 156.574219 C 184.257812 157.460938 191.59375 156.894531 198.910156 156.332031 C 199.324219 156.296875 199.265625 156.304688 200.367188 156.222656 C 202.265625 156.074219 203.917969 157.5 204.058594 159.398438 C 204.195312 161.296875 202.769531 162.953125 200.875 163.097656 C 200.734375 163.109375 200.820312 163.105469 199.441406 163.210938 L 199.429688 163.210938 C 191.78125 163.800781 184.121094 164.394531 174.03125 163.457031 M 176.773438 174.945312 C 174.871094 174.867188 173.394531 173.257812 173.480469 171.355469 C 173.5625 169.449219 175.175781 167.96875 177.078125 168.046875 C 177.4375 168.0625 177.835938 168.074219 178.265625 168.085938 C 179.167969 168.109375 180.191406 168.117188 181.316406 168.113281 C 182.230469 168.113281 183.308594 168.089844 184.535156 168.050781 C 189.835938 167.878906 195.292969 167.355469 199.125 166.476562 C 200.976562 166.054688 202.824219 167.210938 203.246094 169.0625 C 203.671875 170.917969 202.515625 172.761719 200.664062 173.1875 C 196.246094 174.199219 190.320312 174.789062 184.742188 174.96875 C 183.730469 175 182.582031 175.019531 181.332031 175.027344 C 180.289062 175.03125 179.195312 175.019531 178.070312 174.988281 C 177.65625 174.976562 177.226562 174.960938 176.773438 174.945312 Z M 217.144531 103.683594 C 217.65625 108.167969 210.78125 108.964844 210.269531 104.476562 C 208.105469 91.074219 196.429688 85.199219 184.878906 85.636719 C 174.035156 86.042969 162.410156 93.074219 159.246094 103.535156 C 157.589844 109.007812 158.507812 115.390625 161.300781 120.34375 C 163.917969 124.976562 167.835938 127.832031 171.582031 132.273438 C 172.207031 133.011719 172.789062 133.820312 173.324219 134.675781 C 174.96875 137.304688 176.074219 140.34375 176.5 143.347656 C 176.761719 145.179688 177.175781 145.675781 178.125 145.804688 C 185.027344 146.742188 193.507812 146.722656 200.347656 145.589844 C 202.226562 145.277344 204 146.554688 204.304688 148.433594 C 204.609375 150.3125 203.335938 152.09375 201.453125 152.402344 C 196.992188 153.140625 188.636719 153.355469 181.003906 152.800781 C 179.390625 152.6875 177.90625 152.546875 176.609375 152.394531 C 174.09375 152.09375 168.917969 151.945312 169.664062 147.765625 C 170.179688 144.859375 169.316406 141.28125 167.480469 138.339844 C 163.355469 131.730469 157.800781 128.925781 154.382812 121.929688 C 151.601562 116.25 150.734375 109.148438 152.21875 103 C 155.734375 88.46875 171.363281 78.71875 186.359375 78.753906 C 200.941406 78.785156 215.105469 86.996094 217.144531 103.683594 Z M 217.144531 103.683594 "/></g></g></g></g></svg>